# xmcd
#
# Track frame offsets: 
#        150
#        15737
#        31089
#        45418
#        62110
#        73363
#        85402
#        98193
#        109280
#        123094
#
# Disc length: 1859 seconds
#
# Revision: 0
# Processed by: cddbd v1.5.2PL0 Copyright (c) Steve Scherf et al.
# Submitted via: ExactAudioCopy v1.3
#
DISCID=8207410a
DTITLE=Lacy J. Dalton - Takin' It Easy
DYEAR=1981
DGENRE=Country
TTITLE0=Takin' It Easy
TTITLE1=Everybody Makes Mistakes
TTITLE2=Where Were You When I Needed You
TTITLE3=Come To Me
TTITLE4=Comes A Time
TTITLE5=Wild Turkey
TTITLE6=Golden Memories
TTITLE7=Let Me In The Fast Lane
TTITLE8=Feedin' The Fire
TTITLE9=Somebody Killed Dewey Jones' Daughter
EXTD=
EXTT0=
EXTT1=
EXTT2=
EXTT3=
EXTT4=
EXTT5=
EXTT6=
EXTT7=
EXTT8=
EXTT9=
PLAYORDER=
